<?xml version="1.0" encoding="utf-8"?>
<!-- Generator: Adobe Illustrator 27.6.1, SVG Export Plug-In . SVG Version: 6.00 Build 0)  -->
<svg version="1.1" id="Calque_1" xmlns="http://www.w3.org/2000/svg" xmlns:xlink="http://www.w3.org/1999/xlink" x="0px" y="0px"
	 viewBox="0 0 1080 1080" style="enable-background:new 0 0 1080 1080;" xml:space="preserve">
<style type="text/css">
	.st0{fill:#2F358B;}
	.st1{font-family:'Arial-BoldMT';}
	.st2{font-size:29.8551px;}
	.st3{fill:#E52421;}
</style>
<text transform="matrix(1 0 0 1 440.0918 646.9232)" class="st0 st1 st2">DIYE DEMBA</text>
<g>
	<path class="st3" d="M564.16,444.26c-15.98-14.91-40.09-22.76-73.95-22.76c-18.7,0-35.76,1.63-50.11,3.79V604.9
		c10.69,1.21,23.13,1.99,37.71,2.15v-19.07c-5.44-0.17-10.34-0.53-14.14-1.22V442.63c6.23-1.36,15.44-2.44,27.63-2.44
		c49.85,0,74.23,27.37,73.95,70.44c0,22.02-5.45,39.83-16,52.8h27.72c8.48-14.75,12.94-32.87,12.94-53.61
		C589.9,480.29,580.41,459.15,564.16,444.26z"/>
</g>
<g>
	<g>
		<path class="st0" d="M613.01,446.13c-6.32-5.82-25.73-13.58-34.64-17.14l15.09,24.17c16.15,12.07,21.06,34.74,21.07,59.33
			c0.33,49.3-26.85,77.66-77.24,77.99c-9.21,0.06-17.88-0.15-23.85-1.19l-0.88-132.35L489,457.09l1,150.5
			c11.93,1.28,26.02,2,42.82,1.88c35.48-0.23,63.6-9.63,80.55-26.81c16.95-16.91,26-41.35,25.8-71.15
			C638.97,481.98,629.36,460.91,613.01,446.13z"/>
	</g>
</g>
</svg>
